<?xml version="1.0" encoding="iso-8859-1" ?>
<svg width="19" height="19" viewBox="0 0 19 19" fill="none" xmlns="http://www.w3.org/2000/svg">
<g clip-path="url(#clip0)">
<path d="M9.38829 4.49219C6.7706 4.49219 4.65137 6.61373 4.65137 9.22912C4.65137 11.8468 6.77291 13.966 9.38829 13.966C12.006 13.966 14.1252 11.8445 14.1252 9.22912C14.1252 6.61142 12.0037 4.49219 9.38829 4.49219ZM9.38829 12.3037C7.68906 12.3037 6.31368 10.9276 6.31368 9.22912C6.31368 7.53065 7.68983 6.1545 9.38829 6.1545C11.0868 6.1545 12.4629 7.53065 12.4629 9.22912C12.4637 10.9276 11.0875 12.3037 9.38829 12.3037Z" fill="#9A9591"/>
<path d="M13.1894 0.0609195C11.491 -0.0183114 7.28405 -0.0144652 5.58405 0.0609195C4.09021 0.13092 2.77252 0.491689 1.71021 1.554C-0.0651736 3.32938 0.161749 5.72169 0.161749 9.23016C0.161749 12.8209 -0.0382505 15.1579 1.71021 16.9063C3.49252 18.6879 5.91944 18.4548 9.38636 18.4548C12.9433 18.4548 14.171 18.4571 15.4287 17.9702C17.1387 17.3063 18.4294 15.7779 18.5556 13.0325C18.6356 11.3332 18.631 7.12708 18.5556 5.42708C18.4033 2.18631 16.664 0.22092 13.1894 0.0609195ZM15.8779 15.7317C14.714 16.8955 13.0994 16.7917 9.36405 16.7917C5.5179 16.7917 3.97559 16.8486 2.85021 15.7202C1.55406 14.4302 1.78867 12.3586 1.78867 9.21785C1.78867 4.96785 1.35252 1.90707 5.6179 1.68861C6.5979 1.654 6.88636 1.64246 9.35328 1.64246L9.3879 1.66554C13.4871 1.66554 16.7033 1.2363 16.8964 5.50092C16.9402 6.474 16.9502 6.76631 16.9502 9.22939C16.9494 13.0309 17.0217 14.5825 15.8779 15.7317Z" fill="#9A9591"/>
<path d="M14.313 5.41111C14.9243 5.41111 15.4199 4.91552 15.4199 4.30419C15.4199 3.69285 14.9243 3.19727 14.313 3.19727C13.7016 3.19727 13.2061 3.69285 13.2061 4.30419C13.2061 4.91552 13.7016 5.41111 14.313 5.41111Z" fill="#9A9591"/>
</g>
<defs>
<clipPath id="clip0">
<rect width="18.4615" height="18.4615" fill="white" transform="translate(0.154297)"/>
</clipPath>
</defs>
</svg>
