<?xml version="1.0" encoding="iso-8859-1" ?>
<svg width="20" height="19" viewBox="0 0 20 19" fill="none" xmlns="http://www.w3.org/2000/svg">
<g clip-path="url(#clip0)">
<path d="M18.6685 4.56085L18.6916 4.71162C18.4685 3.92009 17.8662 3.30932 17.1009 3.08701L17.0847 3.08316C15.6455 2.69239 9.85393 2.69239 9.85393 2.69239C9.85393 2.69239 4.077 2.6847 2.62315 3.08316C1.84315 3.30932 1.24008 3.92009 1.02085 4.69547L1.017 4.71162C0.479307 7.52008 0.475461 10.8947 1.04085 13.9016L1.017 13.7493C1.24008 14.5409 1.84238 15.1516 2.60777 15.3739L2.62392 15.3778C4.06162 15.7693 9.85469 15.7693 9.85469 15.7693C9.85469 15.7693 15.6308 15.7693 17.0855 15.3778C17.8662 15.1516 18.4693 14.5409 18.6885 13.7655L18.6924 13.7493C18.937 12.4432 19.077 10.9401 19.077 9.4047C19.077 9.34855 19.077 9.29162 19.0762 9.2347C19.077 9.18239 19.077 9.12008 19.077 9.05778C19.077 7.52162 18.937 6.01855 18.6685 4.56085ZM8.00623 12.0393V6.42932L12.8262 9.23855L8.00623 12.0393Z" fill="#9A9591"/>
</g>
<defs>
<clipPath id="clip0">
<rect width="18.4615" height="18.4615" fill="white" transform="translate(0.615234)"/>
</clipPath>
</defs>
</svg>
